<?xml version="1.0"?>
<svg xmlns="http://www.w3.org/2000/svg" xmlns:xlink="http://www.w3.org/1999/xlink" id="Gradient" viewBox="0 0 512 512" width="512" height="512"><defs><linearGradient id="linear-gradient" x1="256" y1="440" x2="256" y2="72" gradientUnits="userSpaceOnUse"><stop offset="0" stop-color="#12c2e9"/><stop offset="0.5" stop-color="#c471ed"/><stop offset="1" stop-color="#f64f59"/></linearGradient></defs><path d="M16,328a32.056,32.056,0,0,0,24,30.987V384a8,8,0,0,0,16,0V358.987a32,32,0,0,0,0-61.974V202.977L104,243.7v37.9a8,8,0,0,0,5.779,7.686C112.764,290.148,183.7,310.4,256,310.4c57.153,0,113.444-12.653,136-18.382V408c0,17.645,17.944,32,40,32s40-14.355,40-32V189.4l21.176-17.967a8,8,0,0,0-3.384-13.9L472,153.447V104c0-17.645-17.944-32-40-32s-40,14.355-40,32v31.056L257.792,104.2a8.03,8.03,0,0,0-3.584,0l-232,53.334a8,8,0,0,0-3.384,13.9L40,189.4V297.013A32.056,32.056,0,0,0,16,328Zm104-83.474c18.353-4.783,77.563-18.926,136-18.926s117.647,14.143,136,18.926v25.056c-22.561-5.73-78.853-18.382-136-18.382s-113.439,12.652-136,18.382ZM408,272h48V382.417a48.089,48.089,0,0,0-48,0Zm48-16H408V240h48Zm0-32H408V129.583a48.089,48.089,0,0,0,48,0Zm-64,3.982c-22.556-5.729-78.847-18.382-136-18.382s-113.444,12.653-136,18.382V202.926C138.365,198.139,197.575,184,256,184s117.635,14.139,136,18.926ZM142.375,280.8c27.257-5.95,70.649-13.6,113.625-13.6s86.368,7.65,113.625,13.6c-27.257,5.951-70.653,13.6-113.625,13.6S169.632,286.751,142.375,280.8ZM432,424c-13.01,0-24-7.327-24-16s10.99-16,24-16,24,7.327,24,16S445.01,424,432,424Zm0-336c13.01,0,24,7.327,24,16s-10.99,16-24,16-24-7.327-24-16S418.99,88,432,88ZM256,120.208l136,31.265v34.909C369.444,180.653,313.153,168,256,168c-72.3,0-143.236,20.252-146.221,21.114A8,8,0,0,0,104,196.8v25.92L41.342,169.556ZM64,328a16,16,0,1,1-16-16A16.019,16.019,0,0,1,64,328Z" style="fill:url(#linear-gradient)"/></svg>
